<?xml version="1.0" standalone="no"?>
<!DOCTYPE svg PUBLIC "-//W3C//DTD SVG 20010904//EN"
 "http://www.w3.org/TR/2001/REC-SVG-20010904/DTD/svg10.dtd">
<svg version="1.0" xmlns="http://www.w3.org/2000/svg"
 width="1366.000000pt" height="768.000000pt" viewBox="0 0 1366.000000 768.000000"
 preserveAspectRatio="xMidYMid meet">

<g transform="translate(0.000000,768.000000) scale(0.100000,-0.100000)"
fill="#000000" stroke="none">
<path d="M1282 6737 l-22 -23 0 -980 0 -981 23 -21 c21 -20 34 -22 129 -22
166 0 148 -92 151 747 l2 712 440 -730 440 -729 125 0 c97 0 131 3 148 16 l22
15 0 994 0 994 -22 15 c-17 12 -49 16 -128 16 -98 0 -108 -2 -128 -23 l-22
-23 -2 -703 -3 -703 -436 724 -436 723 -130 3 c-124 2 -130 2 -151 -21z"/>
<path d="M3616 6688 c-14 -40 -172 -490 -349 -1000 l-324 -927 21 -26 c21 -26
21 -26 156 -23 l134 3 96 295 96 295 354 0 354 0 101 -295 102 -295 147 0 147
0 16 26 c15 24 3 59 -353 1020 l-369 994 -151 3 -152 3 -26 -73z m310 -722
c68 -198 124 -361 124 -363 0 -2 -112 -3 -250 -3 -177 0 -250 3 -250 11 0 10
220 687 236 729 6 13 7 13 12 0 2 -8 60 -177 128 -374z"/>
<path d="M4892 6737 l-22 -23 0 -570 c0 -604 8 -798 39 -949 55 -271 239 -449
511 -496 105 -17 307 -15 405 6 261 55 423 209 485 460 35 144 40 257 40 919
l0 645 -22 15 c-17 12 -49 16 -133 16 -104 0 -113 -2 -133 -23 l-22 -23 0
-635 c0 -678 -5 -760 -51 -885 -28 -76 -95 -143 -175 -175 -53 -21 -75 -24
-204 -24 -137 0 -148 2 -202 27 -89 41 -125 74 -157 142 -62 128 -64 143 -68
886 -4 598 -6 677 -20 693 -14 14 -34 17 -133 17 -109 0 -118 -2 -138 -23z"/>
<path d="M6762 6737 l-22 -23 0 -980 0 -981 23 -21 c21 -20 34 -22 129 -22
166 0 148 -92 151 749 l2 713 194 -638 c107 -352 207 -681 223 -732 l29 -93
132 3 131 3 221 724 220 724 3 -703 2 -704 22 -23 c20 -21 30 -23 128 -23 98
0 108 2 128 23 l22 23 0 980 0 981 -23 21 c-22 21 -32 22 -209 22 l-186 0 -19
-62 c-10 -35 -113 -381 -229 -770 -115 -390 -211 -708 -214 -708 -3 0 -107
345 -231 768 l-226 767 -190 3 c-187 2 -189 2 -211 -21z"/>
<path d="M8912 6737 l-22 -23 0 -570 c0 -604 8 -798 39 -949 55 -271 239 -449
511 -496 105 -17 307 -15 405 6 261 55 423 209 485 460 35 144 40 257 40 919
l0 645 -22 15 c-17 12 -49 16 -133 16 -104 0 -113 -2 -133 -23 l-22 -23 0
-635 c0 -678 -5 -760 -51 -885 -28 -76 -95 -143 -175 -175 -53 -21 -75 -24
-204 -24 -137 0 -148 2 -202 27 -89 41 -125 74 -157 142 -62 128 -64 143 -68
886 -4 598 -6 677 -20 693 -14 14 -34 17 -133 17 -109 0 -118 -2 -138 -23z"/>
<path d="M10793 6738 l-23 -24 0 -980 0 -981 23 -21 c21 -20 34 -22 139 -22
99 0 117 3 131 18 15 17 17 61 17 421 l0 402 253 -3 c250 -3 252 -3 302 -29
58 -31 144 -118 172 -175 27 -52 38 -86 133 -381 l81 -253 139 0 c140 0 140 0
157 26 17 26 15 32 -76 308 -115 347 -159 444 -244 530 l-62 63 60 29 c119 57
223 192 260 334 22 84 22 253 0 335 -40 153 -137 290 -245 349 -28 15 -92 37
-143 48 -83 19 -136 21 -572 25 l-480 5 -22 -24z m1007 -304 c64 -30 104 -67
131 -121 20 -41 23 -64 24 -153 0 -95 -3 -110 -28 -163 -22 -44 -39 -63 -74
-84 -80 -47 -132 -53 -465 -53 l-308 0 0 301 0 300 338 -3 c317 -3 340 -4 382
-24z"/>
<path d="M9785 4430 c-199 -22 -356 -100 -493 -244 -122 -128 -198 -284 -244
-498 -31 -149 -31 -457 0 -606 85 -397 308 -649 644 -727 99 -23 297 -23 398
0 148 34 314 130 393 228 84 102 148 256 163 385 11 98 4 102 -166 102 l-136
0 -12 -77 c-37 -237 -190 -363 -441 -363 -154 0 -245 34 -344 128 -145 139
-202 315 -202 627 0 193 11 271 52 390 34 94 81 169 145 231 101 98 197 134
354 134 148 0 263 -45 342 -135 52 -60 79 -118 93 -205 l12 -70 137 0 c181 0
190 9 154 159 -62 258 -279 465 -549 524 -92 20 -213 27 -300 17z"/>
<path d="M1282 4387 l-22 -23 0 -980 0 -981 23 -21 c21 -20 34 -22 139 -22 99
0 117 3 131 18 15 17 17 63 17 450 l0 432 403 0 c379 0 405 1 420 18 14 15 17
41 17 139 0 103 -3 122 -18 136 -17 15 -61 17 -420 17 l-402 0 0 265 0 265
468 0 c442 0 470 1 485 18 14 15 17 41 17 139 0 103 -3 122 -18 136 -17 15
-74 17 -619 17 l-600 0 -21 -23z"/>
<path d="M2912 4387 l-22 -23 0 -980 0 -981 23 -21 c21 -20 34 -22 139 -22 99
0 117 3 131 18 16 17 17 101 17 1009 0 946 -1 991 -18 1006 -15 14 -41 17
-134 17 -107 0 -116 -2 -136 -23z"/>
<path d="M3642 4387 l-22 -23 0 -980 0 -981 23 -21 c21 -20 34 -22 129 -22
166 0 148 -92 151 747 l2 712 440 -730 440 -729 125 0 c97 0 131 3 148 16 l22
15 0 994 0 994 -22 15 c-17 12 -49 16 -128 16 -98 0 -108 -2 -128 -23 l-22
-23 -2 -703 -3 -703 -436 724 -436 723 -130 3 c-124 2 -130 2 -151 -21z"/>
<path d="M5966 4338 c-14 -40 -172 -490 -349 -1000 l-324 -927 21 -26 c21 -26
21 -26 156 -23 l134 3 96 295 96 295 354 0 354 0 101 -295 102 -295 147 0 147
0 16 26 c15 24 3 59 -353 1020 l-369 994 -151 3 -152 3 -26 -73z m310 -722
c68 -198 124 -361 124 -363 0 -2 -112 -3 -250 -3 -177 0 -250 3 -250 11 0 10
220 687 236 729 6 13 7 13 12 0 2 -8 60 -177 128 -374z"/>
<path d="M7252 4387 l-22 -23 0 -980 0 -981 23 -21 c21 -20 34 -22 129 -22
166 0 148 -92 151 747 l2 712 440 -730 440 -729 125 0 c97 0 131 3 148 16 l22
15 0 994 0 994 -22 15 c-17 12 -49 16 -128 16 -98 0 -108 -2 -128 -23 l-22
-23 -2 -703 -3 -703 -436 724 -436 723 -130 3 c-124 2 -130 2 -151 -21z"/>
<path d="M11002 4387 l-22 -23 0 -980 0 -981 23 -21 23 -22 660 0 c581 0 662
2 682 16 21 14 22 22 22 139 0 117 -1 125 -22 139 -20 14 -89 16 -550 16
l-528 0 0 295 0 295 473 0 c411 0 475 2 495 16 21 14 22 22 22 139 0 117 -1
125 -22 139 -20 14 -84 16 -495 16 l-473 0 0 265 0 265 508 0 509 0 21 23 c20
21 22 34 22 133 0 103 -2 112 -23 132 l-23 22 -640 0 -641 0 -21 -23z"/>
<path d="M4804 2006 c-48 -22 -58 -66 -24 -109 l21 -26 -23 -12 c-84 -43 -93
-125 -18 -164 34 -17 145 -20 186 -4 21 7 34 7 51 -2 18 -10 28 -10 48 1 l25
13 -21 23 c-15 17 -18 27 -11 41 5 10 12 30 16 46 6 26 5 27 -34 27 -33 0 -40
-3 -40 -20 0 -28 -11 -25 -46 11 -29 30 -29 31 -9 45 46 33 55 45 55 72 0 16
-9 37 -20 47 -26 24 -114 30 -156 11z m104 -58 c-2 -11 -13 -27 -25 -35 -20
-13 -23 -12 -39 13 -18 26 -17 27 5 45 28 23 64 9 59 -23z m-18 -163 c24 -24
42 -46 39 -48 -35 -31 -87 -34 -123 -6 -31 24 -33 52 -6 79 29 29 41 25 90
-25z"/>
<path d="M9525 1995 c-14 -13 -25 -36 -25 -50 0 -18 -5 -25 -20 -25 -11 0 -20
-7 -20 -15 0 -8 9 -15 20 -15 19 0 20 -7 20 -100 l0 -100 35 0 34 0 3 98 3 97
28 3 c38 5 36 32 -3 32 -23 0 -30 5 -30 19 0 25 26 51 51 51 10 0 19 7 19 15
0 11 -12 15 -45 15 -35 0 -52 -6 -70 -25z"/>
<path d="M11423 1990 c23 -20 45 -30 67 -30 l31 0 -21 30 c-18 26 -28 30 -66
30 l-45 0 34 -30z"/>
<path d="M1470 1850 l0 -160 35 0 34 0 3 73 3 72 98 3 c77 2 97 6 97 17 0 12
-19 15 -101 15 l-100 0 3 53 3 52 113 3 c90 2 112 5 112 17 0 13 -25 15 -150
15 l-150 0 0 -160z"/>
<path d="M2510 1990 c0 -16 7 -20 35 -20 28 0 35 4 35 20 0 16 -7 20 -35 20
-28 0 -35 -4 -35 -20z"/>
<path d="M2670 1850 l0 -160 35 0 35 0 0 160 0 160 -35 0 -35 0 0 -160z"/>
<path d="M2820 1990 c0 -16 7 -20 35 -20 28 0 35 4 35 20 0 16 -7 20 -35 20
-28 0 -35 -4 -35 -20z"/>
<path d="M3690 1990 c0 -16 7 -20 35 -20 28 0 35 4 35 20 0 16 -7 20 -35 20
-28 0 -35 -4 -35 -20z"/>
<path d="M5310 1990 c0 -16 7 -20 35 -20 28 0 35 4 35 20 0 16 -7 20 -35 20
-28 0 -35 -4 -35 -20z"/>
<path d="M7630 1965 l0 -45 -53 6 c-37 4 -63 2 -89 -9 -71 -30 -99 -118 -58
-184 30 -50 50 -56 166 -48 l104 7 0 159 0 159 -35 0 c-35 0 -35 0 -35 -45z
m-34 -81 c33 -16 34 -18 34 -74 0 -51 -3 -61 -26 -79 -47 -37 -95 -23 -114 33
-21 64 10 125 68 135 2 1 19 -6 38 -15z"/>
<path d="M7780 1990 c0 -16 7 -20 35 -20 28 0 35 4 35 20 0 16 -7 20 -35 20
-28 0 -35 -4 -35 -20z"/>
<path d="M8460 1990 c0 -16 7 -20 35 -20 28 0 35 4 35 20 0 16 -7 20 -35 20
-28 0 -35 -4 -35 -20z"/>
<path d="M9670 1990 c0 -16 7 -20 35 -20 28 0 35 4 35 20 0 16 -7 20 -35 20
-28 0 -35 -4 -35 -20z"/>
<path d="M11190 1990 c0 -16 7 -20 35 -20 28 0 35 4 35 20 0 16 -7 20 -35 20
-28 0 -35 -4 -35 -20z"/>
<path d="M2980 1950 c0 -23 -4 -30 -20 -30 -11 0 -20 -6 -20 -14 0 -7 9 -16
20 -19 18 -5 20 -14 20 -89 0 -52 5 -89 12 -96 18 -18 118 -16 118 2 0 9 -12
16 -27 18 -28 3 -28 4 -31 86 -3 82 -3 82 23 82 16 0 25 6 25 15 0 9 -9 15
-25 15 -21 0 -25 5 -25 30 0 28 -3 30 -35 30 -32 0 -35 -2 -35 -30z"/>
<path d="M3520 1950 c0 -23 -4 -30 -20 -30 -11 0 -20 -6 -20 -14 0 -7 9 -16
20 -19 18 -5 20 -14 20 -89 0 -52 5 -89 12 -96 18 -18 118 -16 118 2 0 9 -12
16 -27 18 -28 3 -28 4 -31 86 -3 82 -3 82 23 82 16 0 25 6 25 15 0 9 -9 15
-25 15 -21 0 -25 5 -25 30 0 28 -3 30 -35 30 -32 0 -35 -2 -35 -30z"/>
<path d="M5820 1950 c0 -23 -4 -30 -20 -30 -11 0 -20 -6 -20 -14 0 -7 9 -16
20 -19 18 -5 20 -14 20 -89 0 -52 5 -89 12 -96 18 -18 118 -16 118 2 0 9 -12
16 -27 18 -28 3 -28 4 -31 86 -3 82 -3 82 23 82 16 0 25 6 25 15 0 9 -9 15
-25 15 -21 0 -25 5 -25 30 0 28 -3 30 -35 30 -32 0 -35 -2 -35 -30z"/>
<path d="M8290 1950 c0 -23 -4 -30 -20 -30 -11 0 -20 -6 -20 -14 0 -7 9 -16
20 -19 18 -5 20 -14 20 -89 0 -52 5 -89 12 -96 18 -18 118 -16 118 2 0 9 -12
16 -27 18 -28 3 -28 4 -31 86 -3 82 -3 82 23 82 16 0 25 6 25 15 0 9 -9 15
-25 15 -21 0 -25 5 -25 30 0 28 -3 30 -35 30 -32 0 -35 -2 -35 -30z"/>
<path d="M1903 1919 c-29 -8 -63 -41 -63 -61 0 -13 75 5 87 21 17 23 91 21
109 -4 25 -34 17 -42 -58 -49 -84 -8 -117 -21 -137 -57 -13 -24 -13 -29 2 -53
23 -35 50 -40 172 -31 l105 7 0 83 c0 109 -9 131 -57 144 -45 13 -116 13 -160
0z m145 -151 c3 -21 -3 -30 -27 -42 -58 -30 -118 -13 -109 31 4 21 60 43 103
40 24 -2 31 -7 33 -29z"/>
<path d="M2264 1920 c-69 -21 -101 -100 -71 -172 23 -54 63 -71 155 -66 66 3
77 6 98 31 32 37 30 47 -7 47 -21 0 -40 -9 -55 -25 -28 -30 -62 -32 -97 -5
-52 41 -40 134 22 159 26 12 34 11 56 -3 14 -9 25 -21 25 -26 0 -6 18 -10 40
-10 38 0 39 1 29 23 -6 13 -20 29 -31 36 -27 17 -124 23 -164 11z"/>
<path d="M3213 1919 c-29 -8 -63 -41 -63 -61 0 -13 75 5 87 21 17 23 91 21
109 -4 25 -34 17 -42 -58 -49 -84 -8 -117 -21 -137 -57 -13 -24 -13 -29 2 -53
23 -35 50 -40 172 -31 l105 7 0 83 c0 109 -9 131 -57 144 -45 13 -116 13 -160
0z m145 -151 c3 -21 -3 -30 -27 -42 -58 -30 -118 -13 -109 31 4 21 60 43 103
40 24 -2 31 -7 33 -29z"/>
<path d="M3900 1917 c-41 -14 -80 -68 -80 -109 0 -46 26 -95 59 -112 38 -20
140 -21 187 -1 62 26 83 114 41 176 -25 38 -71 58 -132 58 -22 0 -56 -5 -75
-12z m109 -32 c34 -17 53 -63 44 -106 -7 -34 -46 -69 -78 -69 -30 0 -71 34
-79 66 -10 38 11 92 42 109 34 18 37 18 71 0z"/>
<path d="M4295 1921 c-11 -4 -39 -6 -62 -3 l-43 5 0 -117 0 -116 35 0 34 0 3
87 3 86 38 20 c35 18 39 18 62 3 24 -16 25 -22 25 -106 l0 -90 35 0 35 0 0 91
c0 50 -4 99 -10 109 -18 33 -105 50 -155 31z"/>
<path d="M5565 1921 c-11 -4 -39 -6 -62 -3 l-43 5 0 -117 0 -116 35 0 34 0 3
87 3 86 38 20 c35 18 39 18 62 3 24 -16 25 -22 25 -106 l0 -90 35 0 35 0 0 91
c0 50 -4 99 -10 109 -18 33 -105 50 -155 31z"/>
<path d="M6050 1917 c-82 -29 -105 -137 -41 -201 30 -30 34 -31 120 -31 81 0
92 2 115 24 35 33 33 51 -4 51 -18 0 -39 -10 -54 -25 -33 -33 -79 -33 -111 0
-14 13 -25 33 -25 45 0 19 6 20 116 20 l117 0 -7 32 c-16 80 -123 120 -226 85z
m110 -32 c17 -9 30 -17 30 -19 0 -3 3 -11 6 -20 5 -14 -5 -16 -70 -16 -42 0
-76 4 -76 8 0 19 49 61 73 62 4 0 21 -7 37 -15z"/>
<path d="M6442 1921 c-8 -5 -34 -6 -58 -3 l-44 5 0 -117 0 -116 35 0 35 0 0
83 c0 97 15 121 75 121 27 0 35 4 35 18 0 14 -8 18 -32 18 -18 0 -39 -4 -46
-9z"/>
<path d="M6667 1923 c-4 -3 -29 -5 -57 -4 l-50 1 0 -115 0 -115 35 0 34 0 3
87 c3 86 3 87 35 106 25 14 36 16 52 7 19 -10 21 -20 21 -105 l0 -95 35 0 35
0 0 80 c0 67 3 82 21 99 28 26 54 32 76 16 15 -11 19 -31 21 -104 l4 -91 34 0
34 0 0 85 c0 46 -5 95 -11 108 -21 46 -89 60 -154 33 -30 -13 -38 -13 -62 -1
-29 15 -94 20 -106 8z"/>
<path d="M7140 1917 c-82 -29 -105 -137 -41 -201 30 -30 34 -31 120 -31 81 0
92 2 115 24 35 33 33 51 -4 51 -18 0 -39 -10 -54 -25 -33 -33 -79 -33 -111 0
-14 13 -25 33 -25 45 0 19 6 20 116 20 l117 0 -7 32 c-16 80 -123 120 -226 85z
m110 -32 c17 -9 30 -17 30 -19 0 -3 3 -11 6 -20 5 -14 -5 -16 -70 -16 -42 0
-76 4 -76 8 0 19 49 61 73 62 4 0 21 -7 37 -15z"/>
<path d="M7983 1919 c-29 -8 -63 -41 -63 -61 0 -13 75 5 87 21 17 23 91 21
109 -4 25 -34 17 -42 -58 -49 -84 -8 -117 -21 -137 -57 -13 -24 -13 -29 2 -53
23 -35 50 -40 172 -31 l105 7 0 83 c0 109 -9 131 -57 144 -45 13 -116 13 -160
0z m145 -151 c3 -21 -3 -30 -27 -42 -58 -30 -118 -13 -109 31 4 21 60 43 103
40 24 -2 31 -7 33 -29z"/>
<path d="M8670 1917 c-41 -14 -80 -68 -80 -109 0 -46 26 -95 59 -112 38 -20
140 -21 187 -1 62 26 83 114 41 176 -25 38 -71 58 -132 58 -22 0 -56 -5 -75
-12z m109 -32 c34 -17 53 -63 44 -106 -7 -34 -46 -69 -78 -69 -30 0 -71 34
-79 66 -10 38 11 92 42 109 34 18 37 18 71 0z"/>
<path d="M9065 1921 c-11 -4 -39 -6 -62 -3 l-43 5 0 -117 0 -116 35 0 34 0 3
87 3 86 38 20 c35 18 39 18 62 3 24 -16 25 -22 25 -106 l0 -90 35 0 35 0 0 91
c0 50 -4 99 -10 109 -18 33 -105 50 -155 31z"/>
<path d="M9935 1921 c-11 -4 -39 -6 -62 -3 l-43 5 0 -117 0 -116 35 0 34 0 3
87 3 86 38 20 c35 18 39 18 62 3 24 -16 25 -22 25 -106 l0 -90 35 0 35 0 0 91
c0 50 -4 99 -10 109 -18 33 -105 50 -155 31z"/>
<path d="M10233 1919 c-29 -8 -63 -41 -63 -61 0 -13 75 5 87 21 17 23 91 21
109 -4 25 -34 17 -42 -58 -49 -84 -8 -117 -21 -137 -57 -13 -24 -13 -29 2 -53
23 -35 50 -40 172 -31 l105 7 0 83 c0 109 -9 131 -57 144 -45 13 -116 13 -160
0z m145 -151 c3 -21 -3 -30 -27 -42 -58 -30 -118 -13 -109 31 4 21 60 43 103
40 24 -2 31 -7 33 -29z"/>
<path d="M10635 1921 c-11 -4 -39 -6 -62 -3 l-43 5 0 -117 0 -116 35 0 34 0 3
87 3 86 38 20 c35 18 39 18 62 3 24 -16 25 -22 25 -106 l0 -90 35 0 35 0 0 91
c0 50 -4 99 -10 109 -18 33 -105 50 -155 31z"/>
<path d="M10944 1920 c-69 -21 -101 -100 -71 -172 23 -54 63 -71 155 -66 66 3
77 6 98 31 32 37 30 47 -7 47 -21 0 -40 -9 -55 -25 -28 -30 -62 -32 -97 -5
-52 41 -40 134 22 159 26 12 34 11 56 -3 14 -9 25 -21 25 -26 0 -6 18 -10 40
-10 38 0 39 1 29 23 -6 13 -20 29 -31 36 -27 17 -124 23 -164 11z"/>
<path d="M11404 1919 c-45 -13 -76 -51 -81 -102 -11 -95 49 -142 173 -135 60
3 77 7 98 27 35 33 33 51 -4 51 -18 0 -39 -10 -54 -25 -33 -33 -79 -33 -111 0
-14 13 -25 33 -25 45 0 19 6 20 115 20 l115 0 0 24 c0 76 -119 126 -226 95z
m114 -39 c56 -34 43 -50 -43 -50 -60 0 -75 3 -75 15 0 15 55 55 75 55 6 0 25
-9 43 -20z"/>
<path d="M11792 1921 c-8 -5 -34 -6 -58 -3 l-44 5 0 -117 0 -116 35 0 35 0 0
83 c0 97 15 121 75 121 27 0 35 4 35 18 0 14 -8 18 -32 18 -18 0 -39 -4 -46
-9z"/>
<path d="M11970 1917 c-82 -29 -105 -137 -41 -201 30 -30 34 -31 120 -31 81 0
92 2 115 24 35 33 33 51 -4 51 -18 0 -39 -10 -54 -25 -33 -33 -79 -33 -111 0
-14 13 -25 33 -25 45 0 19 6 20 116 20 l117 0 -7 32 c-16 80 -123 120 -226 85z
m110 -32 c17 -9 30 -17 30 -19 0 -3 3 -11 6 -20 5 -14 -5 -16 -70 -16 -42 0
-76 4 -76 8 0 19 49 61 73 62 4 0 21 -7 37 -15z"/>
<path d="M2510 1805 l0 -115 35 0 35 0 0 115 0 115 -35 0 -35 0 0 -115z"/>
<path d="M2820 1805 l0 -115 35 0 35 0 0 115 0 115 -35 0 -35 0 0 -115z"/>
<path d="M3690 1805 l0 -115 35 0 35 0 0 115 0 115 -35 0 -35 0 0 -115z"/>
<path d="M5310 1805 l0 -115 35 0 35 0 0 115 0 115 -35 0 -35 0 0 -115z"/>
<path d="M7780 1805 l0 -115 35 0 35 0 0 115 0 115 -35 0 -35 0 0 -115z"/>
<path d="M8460 1805 l0 -115 35 0 35 0 0 115 0 115 -35 0 -35 0 0 -115z"/>
<path d="M9670 1805 l0 -115 35 0 35 0 0 115 0 115 -35 0 -35 0 0 -115z"/>
<path d="M11190 1805 l0 -115 35 0 35 0 0 115 0 115 -35 0 -35 0 0 -115z"/>
</g>
</svg>
