<?xml version="1.0" standalone="no"?>
<!DOCTYPE svg PUBLIC "-//W3C//DTD SVG 20010904//EN"
 "http://www.w3.org/TR/2001/REC-SVG-20010904/DTD/svg10.dtd">
<svg version="1.0" xmlns="http://www.w3.org/2000/svg"
 width="150.000000pt" height="150.000000pt" viewBox="0 0 150.000000 150.000000"
 preserveAspectRatio="xMidYMid meet">

<g transform="translate(0.000000,150.000000) scale(0.100000,-0.100000)"
fill="#000000" stroke="none">
<path d="M484 1366 c-3 -8 -4 -72 -2 -143 2 -92 8 -139 20 -165 l17 -38 340 0
c188 0 341 2 341 4 0 2 -21 43 -46 90 l-46 86 -228 0 -229 0 -3 88 -3 87 -78
3 c-61 2 -79 0 -83 -12z"/>
<path d="M290 979 c0 -7 28 -63 62 -125 l61 -114 49 0 c26 0 48 2 48 5 0 3 -7
22 -15 42 -8 19 -15 39 -15 44 0 5 145 9 324 9 l324 0 36 65 c20 36 36 70 36
75 0 6 -121 10 -319 10 -359 0 -354 1 -333 -67 6 -21 10 -39 7 -41 -2 -2 -19
7 -37 21 l-33 25 -34 -24 c-19 -13 -37 -22 -39 -19 -2 2 2 20 8 41 11 33 11
39 -6 51 -22 16 -124 18 -124 2z"/>
<path d="M560 792 c0 -4 22 -57 48 -117 l49 -110 91 -3 c51 -1 92 1 92 5 0 5
-9 41 -20 81 -11 39 -20 76 -20 82 0 6 35 10 86 10 l85 0 -3 28 -3 27 -202 3
c-112 1 -203 -1 -203 -6z"/>
<path d="M150 405 c0 -54 13 -74 23 -35 3 12 14 20 26 20 28 0 27 18 -1 22
-32 4 -29 22 5 26 42 5 32 22 -13 22 l-40 0 0 -55z"/>
<path d="M255 408 c-17 -37 -21 -54 -13 -57 7 -2 14 1 16 8 5 15 55 14 70 -1
23 -23 23 0 1 51 -12 28 -28 51 -36 51 -8 0 -25 -24 -38 -52z m55 -10 c0 -5
-7 -8 -15 -8 -15 0 -20 21 -8 33 7 7 23 -11 23 -25z"/>
<path d="M377 442 c-10 -10 -17 -28 -17 -40 0 -40 73 -69 99 -39 15 18 3 29
-20 17 -28 -15 -51 -1 -47 29 3 23 7 26 42 24 33 -2 36 -1 26 12 -17 21 -64
19 -83 -3z"/>
<path d="M490 405 c0 -42 3 -55 15 -55 12 0 15 13 15 55 0 42 -3 55 -15 55
-12 0 -15 -13 -15 -55z"/>
<path d="M550 405 l0 -55 40 0 c45 0 55 17 13 22 -25 3 -28 7 -31 46 -5 61
-22 52 -22 -13z"/>
<path d="M660 405 c0 -30 5 -55 10 -55 6 0 10 25 10 55 0 30 -4 55 -10 55 -5
0 -10 -25 -10 -55z"/>
<path d="M700 450 c0 -5 9 -10 20 -10 17 0 20 -7 20 -45 0 -33 4 -45 15 -45
11 0 15 12 15 45 0 38 3 45 20 45 11 0 20 5 20 10 0 6 -25 10 -55 10 -30 0
-55 -4 -55 -10z"/>
<path d="M826 408 c-21 -50 -18 -74 7 -49 14 14 50 14 65 -1 6 -6 15 -9 19 -5
10 11 -38 107 -54 107 -7 0 -24 -24 -37 -52z m54 -10 c0 -5 -7 -8 -15 -8 -17
0 -18 2 -9 25 5 13 8 14 15 3 5 -7 9 -16 9 -20z"/>
<path d="M920 450 c0 -5 9 -10 20 -10 17 0 20 -7 20 -45 0 -57 18 -59 22 -2 2
35 7 43 26 45 44 7 21 22 -33 22 -30 0 -55 -4 -55 -10z"/>
<path d="M1050 405 c0 -30 5 -55 10 -55 6 0 10 25 10 55 0 30 -4 55 -10 55 -5
0 -10 -25 -10 -55z"/>
<path d="M1104 435 c-13 -21 -15 -31 -6 -50 22 -48 95 -41 108 11 14 57 -69
89 -102 39z m76 -14 c7 -15 6 -23 -6 -35 -18 -18 -17 -18 -38 -10 -16 6 -22
45 -9 57 13 14 43 7 53 -12z"/>
<path d="M1230 405 c0 -30 5 -55 10 -55 6 0 10 14 10 30 0 17 4 30 8 30 5 0
18 -13 30 -30 36 -48 52 -40 52 25 0 42 -3 55 -15 55 -10 0 -15 -10 -15 -32
l0 -33 -26 33 c-39 49 -54 43 -54 -23z"/>
<path d="M245 290 c-10 -11 -15 -23 -12 -27 4 -3 7 -1 7 6 0 6 10 15 22 20 12
4 17 11 11 14 -6 4 -18 -2 -28 -13z"/>
<path d="M444 246 c-3 -13 -4 -33 -1 -43 3 -13 5 -11 6 8 0 14 6 30 12 36 7 7
8 13 0 17 -6 4 -13 -4 -17 -18z"/>
<path d="M1011 256 c-7 -8 -8 -17 -3 -20 6 -3 15 1 21 8 7 8 8 17 3 20 -6 3
-15 -1 -21 -8z"/>
<path d="M705 250 c3 -5 8 -10 11 -10 2 0 4 5 4 10 0 6 -5 10 -11 10 -5 0 -7
-4 -4 -10z"/>
<path d="M747 253 c-4 -3 -6 -20 -6 -37 2 -27 2 -28 6 -6 3 14 10 31 15 38 11
12 -3 18 -15 5z"/>
<path d="M60 241 c-8 -3 -16 -14 -18 -24 -3 -16 -1 -16 18 3 24 24 23 31 0 21z"/>
<path d="M108 225 c-14 -32 3 -58 25 -36 10 10 9 11 -5 6 -11 -4 -18 -2 -18 4
0 6 8 11 18 12 10 0 12 3 5 6 -7 2 -13 9 -13 15 0 6 7 8 15 4 8 -3 15 -1 15 4
0 20 -31 9 -42 -15z"/>
<path d="M215 229 c-4 -11 -4 -23 -1 -26 3 -4 6 1 6 10 0 8 8 17 18 19 16 3
16 4 0 10 -12 5 -19 1 -23 -13z"/>
<path d="M306 234 c-8 -21 -5 -23 19 -13 13 5 15 8 5 8 -13 1 -13 2 0 11 13 8
13 10 -1 10 -9 0 -20 -7 -23 -16z"/>
<path d="M500 229 c-13 -24 -7 -49 12 -48 10 0 10 2 1 6 -19 7 -16 20 7 26 23
6 27 37 5 37 -8 0 -19 -9 -25 -21z m30 1 c0 -5 -4 -10 -10 -10 -5 0 -10 5 -10
10 0 6 5 10 10 10 6 0 10 -4 10 -10z"/>
<path d="M609 229 c-8 -16 -8 -24 1 -33 8 -8 10 -7 5 5 -4 11 0 18 14 22 12 3
21 11 20 19 0 10 -2 10 -6 1 -2 -7 -9 -13 -14 -13 -6 0 -7 5 -4 10 3 6 4 10 1
10 -3 0 -10 -9 -17 -21z"/>
<path d="M674 235 c-4 -8 -1 -22 6 -30 10 -12 10 -15 0 -15 -8 0 -11 -3 -7 -6
3 -3 11 -3 17 1 8 5 8 11 -1 21 -6 7 -9 21 -5 29 3 8 3 15 0 15 -2 0 -7 -7
-10 -15z"/>
<path d="M942 238 c-7 -7 -12 -16 -12 -22 0 -5 7 -1 15 10 13 16 16 17 25 4 8
-13 10 -13 10 3 0 20 -20 23 -38 5z"/>
<path d="M1066 226 c-9 -36 -6 -37 23 -7 14 14 17 22 8 18 -9 -3 -17 -1 -20 6
-2 7 -7 -1 -11 -17z"/>
<path d="M1142 238 c-7 -7 -12 -16 -12 -20 0 -12 28 -10 36 4 4 7 3 8 -4 4 -7
-4 -12 -3 -12 3 0 5 6 12 13 14 6 3 7 6 2 6 -6 1 -16 -4 -23 -11z"/>
<path d="M1241 219 c-15 -42 -14 -52 3 -37 7 7 13 19 12 27 -1 7 5 16 13 19
10 3 12 0 8 -12 -4 -10 -3 -15 3 -11 15 9 12 32 -6 39 -22 8 -21 9 -33 -25z"/>
<path d="M1338 243 c-10 -2 -18 -11 -18 -19 0 -12 3 -12 20 -2 11 7 20 16 20
20 0 5 -1 7 -2 7 -2 -1 -11 -3 -20 -6z"/>
<path d="M1429 234 c-6 -8 -9 -17 -5 -21 3 -3 6 -1 6 5 0 6 10 12 23 14 18 3
19 4 5 10 -10 4 -22 1 -29 -8z"/>
<path d="M365 219 c-9 -28 -2 -33 13 -9 6 11 8 21 3 25 -5 3 -13 -4 -16 -16z"/>
<path d="M847 226 c-10 -27 -4 -29 29 -10 22 12 24 15 7 11 -12 -3 -24 0 -26
6 -2 6 -7 3 -10 -7z"/>
<path d="M1491 233 c0 -6 -4 -20 -7 -30 -5 -14 -4 -15 5 -7 7 7 11 20 8 30 -3
11 -5 14 -6 7z"/>
<path d="M1000 211 c0 -6 4 -13 10 -16 6 -3 7 1 4 9 -7 18 -14 21 -14 7z"/>
<path d="M1436 204 c-11 -8 -16 -14 -10 -14 13 0 39 18 34 24 -3 2 -14 -2 -24
-10z"/>
</g>
</svg>
